<mxfile host="app.diagrams.net" modified="2022-09-28T21:48:59.311Z" agent="5.0 (Windows NT 10.0; Win64; x64) AppleWebKit/537.36 (KHTML, like Gecko) Chrome/105.0.0.0 Safari/537.36" etag="RQcGE_kWRImCg27gy2XC" version="17.4.6" type="github">
  <diagram id="A_z1lV0RZ9BkqCMzlwSR" name="Page-1">
    <mxGraphModel dx="657" dy="1057" grid="1" gridSize="10" guides="1" tooltips="1" connect="1" arrows="1" fold="1" page="1" pageScale="1" pageWidth="1100" pageHeight="850" math="0" shadow="0">
      <root>
        <mxCell id="0" />
        <mxCell id="1" parent="0" />
        <mxCell id="r3fTXxbTnkgZcjGhdeKr-4" value="" style="edgeStyle=orthogonalEdgeStyle;rounded=0;orthogonalLoop=1;jettySize=auto;html=1;" edge="1" parent="1" source="r3fTXxbTnkgZcjGhdeKr-1" target="r3fTXxbTnkgZcjGhdeKr-2">
          <mxGeometry relative="1" as="geometry" />
        </mxCell>
        <mxCell id="r3fTXxbTnkgZcjGhdeKr-1" value="Program_Begin" style="strokeWidth=2;html=1;shape=mxgraph.flowchart.start_1;whiteSpace=wrap;" vertex="1" parent="1">
          <mxGeometry x="500" y="50" width="100" height="60" as="geometry" />
        </mxCell>
        <mxCell id="r3fTXxbTnkgZcjGhdeKr-5" value="" style="edgeStyle=orthogonalEdgeStyle;rounded=0;orthogonalLoop=1;jettySize=auto;html=1;" edge="1" parent="1" source="r3fTXxbTnkgZcjGhdeKr-2" target="r3fTXxbTnkgZcjGhdeKr-3">
          <mxGeometry relative="1" as="geometry" />
        </mxCell>
        <mxCell id="r3fTXxbTnkgZcjGhdeKr-2" value="check_states" style="rounded=1;whiteSpace=wrap;html=1;absoluteArcSize=1;arcSize=14;strokeWidth=2;" vertex="1" parent="1">
          <mxGeometry x="500" y="140" width="100" height="100" as="geometry" />
        </mxCell>
        <mxCell id="r3fTXxbTnkgZcjGhdeKr-7" value="" style="edgeStyle=orthogonalEdgeStyle;rounded=0;orthogonalLoop=1;jettySize=auto;html=1;" edge="1" parent="1" source="r3fTXxbTnkgZcjGhdeKr-3">
          <mxGeometry relative="1" as="geometry">
            <mxPoint x="550" y="420" as="targetPoint" />
          </mxGeometry>
        </mxCell>
        <mxCell id="r3fTXxbTnkgZcjGhdeKr-3" value="Start Recipe" style="rounded=1;whiteSpace=wrap;html=1;absoluteArcSize=1;arcSize=14;strokeWidth=2;" vertex="1" parent="1">
          <mxGeometry x="500" y="280" width="100" height="100" as="geometry" />
        </mxCell>
        <mxCell id="r3fTXxbTnkgZcjGhdeKr-11" style="edgeStyle=orthogonalEdgeStyle;rounded=0;orthogonalLoop=1;jettySize=auto;html=1;exitX=0.01;exitY=0.97;exitDx=0;exitDy=0;exitPerimeter=0;" edge="1" parent="1" target="r3fTXxbTnkgZcjGhdeKr-10">
          <mxGeometry relative="1" as="geometry">
            <mxPoint x="523.95" y="480.05999999999983" as="sourcePoint" />
          </mxGeometry>
        </mxCell>
        <mxCell id="r3fTXxbTnkgZcjGhdeKr-17" value="" style="edgeStyle=orthogonalEdgeStyle;rounded=0;orthogonalLoop=1;jettySize=auto;html=1;exitX=0.01;exitY=0.97;exitDx=0;exitDy=0;exitPerimeter=0;entryX=0.5;entryY=0;entryDx=0;entryDy=0;" edge="1" parent="1" target="r3fTXxbTnkgZcjGhdeKr-14">
          <mxGeometry relative="1" as="geometry">
            <mxPoint x="523.95" y="480.05999999999983" as="sourcePoint" />
            <Array as="points">
              <mxPoint x="540" y="479.86" />
              <mxPoint x="540" y="511.86" />
              <mxPoint x="470" y="511.86" />
            </Array>
          </mxGeometry>
        </mxCell>
        <mxCell id="r3fTXxbTnkgZcjGhdeKr-21" style="edgeStyle=orthogonalEdgeStyle;rounded=0;orthogonalLoop=1;jettySize=auto;html=1;exitX=0.99;exitY=0.97;exitDx=0;exitDy=0;exitPerimeter=0;entryX=0.5;entryY=0;entryDx=0;entryDy=0;" edge="1" parent="1" target="r3fTXxbTnkgZcjGhdeKr-19">
          <mxGeometry relative="1" as="geometry">
            <mxPoint x="577.0500000000002" y="480.05999999999983" as="sourcePoint" />
          </mxGeometry>
        </mxCell>
        <mxCell id="r3fTXxbTnkgZcjGhdeKr-25" style="edgeStyle=orthogonalEdgeStyle;rounded=0;orthogonalLoop=1;jettySize=auto;html=1;exitX=0.99;exitY=0.97;exitDx=0;exitDy=0;exitPerimeter=0;entryX=0.5;entryY=0;entryDx=0;entryDy=0;" edge="1" parent="1" target="r3fTXxbTnkgZcjGhdeKr-23">
          <mxGeometry relative="1" as="geometry">
            <mxPoint x="577.0500000000002" y="480.05999999999983" as="sourcePoint" />
            <Array as="points">
              <mxPoint x="560" y="479.86" />
              <mxPoint x="560" y="511.86" />
              <mxPoint x="630" y="511.86" />
            </Array>
          </mxGeometry>
        </mxCell>
        <mxCell id="r3fTXxbTnkgZcjGhdeKr-9" value="&lt;br&gt;1st 3&lt;br&gt;Opcode Bits" style="strokeWidth=2;html=1;shape=mxgraph.flowchart.extract_or_measurement;whiteSpace=wrap;" vertex="1" parent="1">
          <mxGeometry x="503" y="420" width="95" height="60" as="geometry" />
        </mxCell>
        <mxCell id="r3fTXxbTnkgZcjGhdeKr-13" value="" style="edgeStyle=orthogonalEdgeStyle;rounded=0;orthogonalLoop=1;jettySize=auto;html=1;" edge="1" parent="1" source="r3fTXxbTnkgZcjGhdeKr-10" target="r3fTXxbTnkgZcjGhdeKr-12">
          <mxGeometry relative="1" as="geometry" />
        </mxCell>
        <mxCell id="r3fTXxbTnkgZcjGhdeKr-10" value="MOV" style="rounded=1;whiteSpace=wrap;html=1;absoluteArcSize=1;arcSize=14;strokeWidth=2;" vertex="1" parent="1">
          <mxGeometry x="280" y="521.86" width="100" height="100" as="geometry" />
        </mxCell>
        <mxCell id="r3fTXxbTnkgZcjGhdeKr-12" value="&lt;br&gt;Position" style="strokeWidth=2;html=1;shape=mxgraph.flowchart.extract_or_measurement;whiteSpace=wrap;" vertex="1" parent="1">
          <mxGeometry x="282.5" y="651.86" width="95" height="60" as="geometry" />
        </mxCell>
        <mxCell id="r3fTXxbTnkgZcjGhdeKr-16" value="" style="edgeStyle=orthogonalEdgeStyle;rounded=0;orthogonalLoop=1;jettySize=auto;html=1;" edge="1" parent="1" source="r3fTXxbTnkgZcjGhdeKr-14" target="r3fTXxbTnkgZcjGhdeKr-15">
          <mxGeometry relative="1" as="geometry" />
        </mxCell>
        <mxCell id="r3fTXxbTnkgZcjGhdeKr-14" value="LOOP" style="rounded=1;whiteSpace=wrap;html=1;absoluteArcSize=1;arcSize=14;strokeWidth=2;" vertex="1" parent="1">
          <mxGeometry x="420" y="551.86" width="100" height="100" as="geometry" />
        </mxCell>
        <mxCell id="r3fTXxbTnkgZcjGhdeKr-15" value="&lt;br&gt;Loop #" style="strokeWidth=2;html=1;shape=mxgraph.flowchart.extract_or_measurement;whiteSpace=wrap;" vertex="1" parent="1">
          <mxGeometry x="422.5" y="681.86" width="95" height="60" as="geometry" />
        </mxCell>
        <mxCell id="r3fTXxbTnkgZcjGhdeKr-18" value="" style="edgeStyle=orthogonalEdgeStyle;rounded=0;orthogonalLoop=1;jettySize=auto;html=1;" edge="1" source="r3fTXxbTnkgZcjGhdeKr-19" parent="1">
          <mxGeometry relative="1" as="geometry">
            <mxPoint x="760.4285714285716" y="651.8600000000001" as="targetPoint" />
          </mxGeometry>
        </mxCell>
        <mxCell id="r3fTXxbTnkgZcjGhdeKr-19" value="END" style="rounded=1;whiteSpace=wrap;html=1;absoluteArcSize=1;arcSize=14;strokeWidth=2;" vertex="1" parent="1">
          <mxGeometry x="710" y="521.86" width="100" height="100" as="geometry" />
        </mxCell>
        <mxCell id="r3fTXxbTnkgZcjGhdeKr-22" value="" style="edgeStyle=orthogonalEdgeStyle;rounded=0;orthogonalLoop=1;jettySize=auto;html=1;" edge="1" source="r3fTXxbTnkgZcjGhdeKr-23" target="r3fTXxbTnkgZcjGhdeKr-24" parent="1">
          <mxGeometry relative="1" as="geometry" />
        </mxCell>
        <mxCell id="r3fTXxbTnkgZcjGhdeKr-23" value="LOOP" style="rounded=1;whiteSpace=wrap;html=1;absoluteArcSize=1;arcSize=14;strokeWidth=2;" vertex="1" parent="1">
          <mxGeometry x="580" y="551.86" width="100" height="100" as="geometry" />
        </mxCell>
        <mxCell id="r3fTXxbTnkgZcjGhdeKr-24" value="&lt;br&gt;Loop #" style="strokeWidth=2;html=1;shape=mxgraph.flowchart.extract_or_measurement;whiteSpace=wrap;" vertex="1" parent="1">
          <mxGeometry x="582.5" y="681.86" width="95" height="60" as="geometry" />
        </mxCell>
        <mxCell id="r3fTXxbTnkgZcjGhdeKr-27" value="WAIT" style="rounded=1;whiteSpace=wrap;html=1;absoluteArcSize=1;arcSize=14;strokeWidth=2;" vertex="1" parent="1">
          <mxGeometry x="710" y="651.86" width="100" height="100" as="geometry" />
        </mxCell>
      </root>
    </mxGraphModel>
  </diagram>
</mxfile>
